custom-analysis
version=1
nRows=4
nColumns=98
inDegrees=no

This file contains tibia displacement and acting force.

Units are S.I. units (seconds, meters, Newtons, ...)
Angles are in degrees.

endheader
time	APT	SIT	knee_angle	aACL_R_force	pACL_R_force	aPCL_R_force	pPCL_R_force	aMCL_R_force	mMCL_R_force	pMCL_R_force	aLCL_R_force	mLCL_R_force	pLCL_R_force	aPCL_L_force	pPCL_L_force	aMCL_L_force	aLCL_L_force	aACL_R_length	pACL_R_length	aPCL_R_length	pPCL_R_length	aMCL_R_length	mMCL_R_length	pMCL_R_length	aLCL_R_length	mLCL_R_length	pLCL_R_length	aPCL_L_length	pPCL_L_length	aMCL_L_length	aLCL_L_length	aACL_R_strain	pACL_R_strain	aPCL_R_strain	pPCL_R_strain	aMCL_R_strain	mMCL_R_strain	pMCL_R_strain	aLCL_R_strain	mLCL_R_strain	pLCL_R_strain	aPCL_L_strain	pPCL_L_strain	aMCL_L_strain	aLCL_L_strain	femur_lat_meniscii_r.femur_lat_r.force.X	femur_lat_meniscii_r.femur_lat_r.force.Y	femur_lat_meniscii_r.femur_lat_r.force.Z	femur_lat_meniscii_r.femur_lat_r.torque.X	femur_lat_meniscii_r.femur_lat_r.torque.Y	femur_lat_meniscii_r.femur_lat_r.torque.Z	femur_lat_meniscii_r.meniscus_lat_r.force.X	femur_lat_meniscii_r.meniscus_lat_r.force.Y	femur_lat_meniscii_r.meniscus_lat_r.force.Z	femur_lat_meniscii_r.meniscus_lat_r.torque.X	femur_lat_meniscii_r.meniscus_lat_r.torque.Y	femur_lat_meniscii_r.meniscus_lat_r.torque.Z	femur_med_meniscii_r.femur_med_r.force.X	femur_med_meniscii_r.femur_med_r.force.Y	femur_med_meniscii_r.femur_med_r.force.Z	femur_med_meniscii_r.femur_med_r.torque.X	femur_med_meniscii_r.femur_med_r.torque.Y	femur_med_meniscii_r.femur_med_r.torque.Z	femur_med_meniscii_r.meniscus_med_r.force.X	femur_med_meniscii_r.meniscus_med_r.force.Y	femur_med_meniscii_r.meniscus_med_r.force.Z	femur_med_meniscii_r.meniscus_med_r.torque.X	femur_med_meniscii_r.meniscus_med_r.torque.Y	femur_med_meniscii_r.meniscus_med_r.torque.Z	femur_med_tibia_r.tibia_upper_r.force.X	femur_med_tibia_r.tibia_upper_r.force.Y	femur_med_tibia_r.tibia_upper_r.force.Z	femur_med_tibia_r.tibia_upper_r.torque.X	femur_med_tibia_r.tibia_upper_r.torque.Y	femur_med_tibia_r.tibia_upper_r.torque.Z	femur_med_tibia_r.femur_med_r.force.X	femur_med_tibia_r.femur_med_r.force.Y	femur_med_tibia_r.femur_med_r.force.Z	femur_med_tibia_r.femur_med_r.torque.X	femur_med_tibia_r.femur_med_r.torque.Y	femur_med_tibia_r.femur_med_r.torque.Z	femur_lat_tibia_r.tibia_upper_r.force.X	femur_lat_tibia_r.tibia_upper_r.force.Y	femur_lat_tibia_r.tibia_upper_r.force.Z	femur_lat_tibia_r.tibia_upper_r.torque.X	femur_lat_tibia_r.tibia_upper_r.torque.Y	femur_lat_tibia_r.tibia_upper_r.torque.Z	femur_lat_tibia_r.femur_lat_r.force.X	femur_lat_tibia_r.femur_lat_r.force.Y	femur_lat_tibia_r.femur_lat_r.force.Z	femur_lat_tibia_r.femur_lat_r.torque.X	femur_lat_tibia_r.femur_lat_r.torque.Y	femur_lat_tibia_r.femur_lat_r.torque.Z	femur_lat_meniscii_force_r	femur_med_meniscii_force_r	femur_lat_tibia_force_r	femur_med_tibia_force_r
      0.16211111	      0.01281295	      0.01665982	     55.41369845	      1.24524606	      0.00000000	    548.34382870	    357.42166226	      0.00000000	      0.00000000	      0.00000000	      0.00000000	      0.00000000	      0.00000000	      0.00000000	      0.00000000	      0.00000001	      0.00000000	      0.03152038	      0.02422584	      0.03478020	      0.03231596	      0.05934896	      0.05912871	      0.05629472	      0.05288737	      0.04822623	      0.04336329	      0.01525851	      0.01651186	      0.06550154	      0.04489616	      0.01660597	     -0.03323650	      0.11850331	      0.08124255	     -0.01129566	     -0.01111802	     -0.04143311	     -0.05519799	     -0.14368916	     -0.17155031	      0.00000079	     -0.32847694	      0.00000060	     -0.00000086	    113.68198195	    222.98791552	     25.64041254	    -15.66315541	      2.75233993	     44.32349582	   -113.68198195	   -222.98791552	    -25.64041254	      6.08162709	     -3.42816469	      4.03562793	     29.81691757	     29.06251294	     14.39014555	     -5.13227779	     -0.67661490	     11.95973480	    -29.81691757	    -29.06251294	    -14.39014555	     -0.38165073	      0.34560036	      0.13385145	   -699.94081072	   -683.72342984	    213.42938327	    -15.82030238	     15.90050286	     -0.88866444	    699.94081072	    683.72342984	   -213.42938327	     99.18449244	    -12.61356518	    284.81093489	      0.00000000	      0.00000000	      0.00000000	      0.00000000	      0.00000000	      0.00000000	      0.00000000	      0.00000000	      0.00000000	      0.00000000	      0.00000000	      0.00000000	    251.60412207	     44.05399551	      0.00000000	   1001.47240035
      0.16237790	      0.01283209	      0.01671013	     55.55660862	      1.20542328	      0.00000000	    551.13916667	    358.86927193	      0.00000000	      0.00000000	      0.00000000	      0.00000000	      0.00000000	      0.00000000	      0.00000000	      0.00000000	      0.00000001	      0.00000000	      0.03151981	      0.02422610	      0.03479606	      0.03232507	      0.05936193	      0.05913077	      0.05628930	      0.05287997	      0.04821231	      0.04334519	      0.01525851	      0.01651186	      0.06550154	      0.04489616	      0.01658772	     -0.03322598	      0.11901344	      0.08154746	     -0.01107954	     -0.01108357	     -0.04152527	     -0.05533015	     -0.14393634	     -0.17189626	      0.00000079	     -0.32847694	      0.00000060	     -0.00000086	    117.07505629	    220.78070651	     24.74533257	    -15.22437382	      2.83965140	     45.75170502	   -117.07505629	   -220.78070651	    -24.74533257	      5.98470083	     -3.50379601	      3.88858766	     30.08122002	     28.99727444	     14.19944302	     -5.05678047	     -0.68184333	     12.06359269	    -30.08122002	    -28.99727444	    -14.19944302	     -0.38412030	      0.35351406	      0.13333552	   -703.22432320	   -683.73270108	    214.00287710	    -15.81140567	     15.97145231	     -0.87062107	    703.22432320	    683.73270108	   -214.00287710	     99.40663515	    -12.66833202	    286.12216002	      0.00000000	      0.00000000	      0.00000000	      0.00000000	      0.00000000	      0.00000000	      0.00000000	      0.00000000	      0.00000000	      0.00000000	      0.00000000	      0.00000000	    251.12351674	     44.12874239	      0.00000000	   1003.89844441
      0.16264469	      0.01285107	      0.01676046	     55.69952823	      1.20951211	      0.00000000	    553.94497723	    360.34852258	      0.00000000	      0.00000000	      0.00000000	      0.00000000	      0.00000000	      0.00000000	      0.00000000	      0.00000000	      0.00000001	      0.00000000	      0.03151923	      0.02422638	      0.03481193	      0.03233421	      0.05937492	      0.05913289	      0.05628399	      0.05287252	      0.04819835	      0.04332708	      0.01525851	      0.01651186	      0.06550154	      0.04489616	      0.01656887	     -0.03321488	      0.11952374	      0.08185324	     -0.01086307	     -0.01104826	     -0.04161583	     -0.05546329	     -0.14418412	     -0.17224216	      0.00000079	     -0.32847694	      0.00000060	     -0.00000086	    117.03090963	    220.78884778	     25.12717195	    -15.38469670	      2.84047185	     45.72390684	   -117.03090963	   -220.78884778	    -25.12717195	      5.99706050	     -3.51370884	      3.91505877	     30.33047330	     28.66939971	     13.98357115	     -4.97813392	     -0.68694946	     12.16324299	    -30.33047330	    -28.66939971	    -13.98357115	     -0.38038009	      0.36185247	      0.12593548	   -706.69128156	   -684.29731647	    214.78221161	    -15.81480709	     16.04809685	     -0.84304583	    706.69128156	    684.29731647	   -214.78221161	     99.72145470	    -12.72493084	    287.50612399	      0.00000000	      0.00000000	      0.00000000	      0.00000000	      0.00000000	      0.00000000	      0.00000000	      0.00000000	      0.00000000	      0.00000000	      0.00000000	      0.00000000	    251.14801190	     44.01604653	      0.00000000	   1006.87972627
      0.16303857	      0.01287890	      0.01683479	     55.91057266	      1.25736889	      0.00000000	    558.06967543	    362.49676011	      0.00000000	      0.00000000	      0.00000000	      0.00000000	      0.00000000	      0.00000000	      0.00000000	      0.00000000	      0.00000001	      0.00000000	      0.03151840	      0.02422687	      0.03483534	      0.03234773	      0.05939417	      0.05913612	      0.05627632	      0.05286144	      0.04817772	      0.04330038	      0.01525851	      0.01651186	      0.06550154	      0.04489616	      0.01654235	     -0.03319522	      0.12027666	      0.08230549	     -0.01054240	     -0.01099425	     -0.04174631	     -0.05566117	     -0.14455055	     -0.17275236	      0.00000079	     -0.32847694	      0.00000060	     -0.00000086	    117.11701336	    219.11760589	     25.29924869	    -15.43215414	      2.83994919	     45.76278720	   -117.11701336	   -219.11760589	    -25.29924869	      5.97486839	     -3.51897264	      3.89857113	     30.64077230	     28.48740344	     13.71012580	     -4.87123802	     -0.69267789	     12.28491632	    -30.64077230	    -28.48740344	    -13.71012580	     -0.38266453	      0.37155796	      0.12426995	   -712.57743136	   -684.41408788	    215.35353766	    -15.80069227	     16.16024120	     -0.84534725	    712.57743136	    684.41408788	   -215.35353766	     99.94261149	    -12.82026590	    289.87500282	      0.00000000	      0.00000000	      0.00000000	      0.00000000	      0.00000000	      0.00000000	      0.00000000	      0.00000000	      0.00000000	      0.00000000	      0.00000000	      0.00000000	    249.73780654	     44.02677175	      0.00000000	   1011.22024582
